<svg xmlns="http://www.w3.org/2000/svg" viewBox="0 0 251 251"><defs><style>.cls-1{fill:none;stroke:#000;stroke-miterlimit:10;stroke-width:9px;}</style></defs><g id="Layer_2" data-name="Layer 2"><g id="Layer_1-2" data-name="Layer 1"><path d="M109.61,161.22V139.4a210.76,210.76,0,0,0,15.93-15.49,68.84,68.84,0,0,0,11.35-16.37,42.16,42.16,0,0,0,4.23-18.83q0-8.26-4.31-13.73t-12.59-5.45q-7,0-11.18,4A13.93,13.93,0,0,0,108.91,84a24.67,24.67,0,0,0,.35,4.31c.23,1.35.53,2.85.88,4.49L92.54,96.1a39.73,39.73,0,0,1-1.41-5.54A31.31,31.31,0,0,1,90.6,85q0-14.07,8.81-23t24.81-8.89q16.72,0,26.05,9.41t9.33,26.67a50.11,50.11,0,0,1-4.4,21.29,66.92,66.92,0,0,1-12,17.6,202.68,202.68,0,0,1-16.9,16v17.07ZM108.73,197V177.59h18.83V197Z"/><circle class="cls-1" cx="125.5" cy="125.5" r="121"/></g></g></svg>